<?xml version="1.0" standalone="no"?>
<!DOCTYPE svg PUBLIC "-//W3C//DTD SVG 20010904//EN"
 "http://www.w3.org/TR/2001/REC-SVG-20010904/DTD/svg10.dtd">
<svg version="1.0" xmlns="http://www.w3.org/2000/svg"
 width="700.000000pt" height="700.000000pt" viewBox="0 0 700.000000 700.000000"
 preserveAspectRatio="xMidYMid meet">
<metadata>
Created by potrace 1.11, written by Peter Selinger 2001-2013
</metadata>
<g transform="translate(0.000000,700.000000) scale(0.100000,-0.100000)"
fill="#000000" stroke="none">
<path d="M3338 5685 c-2 -2 -38 -5 -80 -9 -43 -4 -83 -8 -90 -11 -7 -2 -31 -6
-53 -9 -144 -18 -352 -83 -490 -152 -346 -175 -594 -456 -759 -862 -39 -94
-90 -247 -101 -299 -2 -10 -7 -27 -11 -38 -4 -11 12 5 36 35 177 221 397 387
610 459 188 65 452 60 650 -11 168 -60 300 -159 581 -437 244 -242 250 -247
354 -333 237 -194 513 -329 786 -383 47 -10 84 -16 109 -20 101 -13 139 -18
170 -21 49 -4 347 -4 395 0 100 10 192 23 283 40 197 39 438 144 604 263 126
90 259 227 351 360 35 50 147 239 147 248 0 3 14 34 30 70 17 36 30 68 30 71
0 3 6 20 14 37 22 50 99 297 92 297 -2 0 -23 -26 -48 -57 -69 -88 -202 -219
-284 -279 -134 -99 -311 -180 -441 -201 -62 -10 -306 -10 -358 0 -145 28 -253
71 -375 152 -91 61 -154 117 -400 359 -118 116 -239 232 -269 256 -29 25 -65
55 -80 68 -54 48 -238 165 -331 212 -162 81 -406 156 -575 175 -27 3 -70 8
-95 12 -41 6 -397 13 -402 8z"/>
<path d="M1485 3574 c-148 -19 -176 -24 -280 -50 -612 -154 -1004 -583 -1201
-1314 -2 -8 15 7 39 35 214 250 407 392 627 459 190 58 396 56 598 -6 174 -53
320 -158 590 -425 315 -312 432 -412 597 -513 178 -110 443 -210 625 -236 19
-3 40 -7 47 -9 58 -19 533 -28 658 -12 757 95 1232 531 1450 1330 7 26 12 47
11 47 -2 0 -24 -26 -49 -58 -115 -147 -286 -295 -430 -372 -75 -40 -191 -87
-236 -95 -14 -2 -51 -9 -81 -15 -30 -6 -103 -10 -161 -9 -239 3 -412 61 -603
202 -44 33 -178 156 -296 272 -249 246 -301 294 -401 373 -116 92 -215 155
-334 213 -109 53 -127 61 -215 92 -56 20 -231 64 -285 72 -23 3 -51 7 -64 10
-108 21 -472 26 -606 9z"/>
</g>
</svg>
